<svg width="200px" height="300px" viewBox="0 0 200 300" xmlns="http://www.w3.org/2000/svg" version="1.1">
  <defs>
    <!-- Main indigo-blue gradient -->
    <linearGradient id="gradMain" x1="0%" y1="0%" x2="0%" y2="100%">
      <stop offset="0%" stop-color="#2196F3" />
      <stop offset="100%" stop-color="#1A237E" />
    </linearGradient>

    <!-- Signal blue gradient -->
    <linearGradient id="gradSignal" x1="0%" y1="0%" x2="0%" y2="100%">
      <stop offset="0%" stop-color="#64B5F6" />
      <stop offset="100%" stop-color="#00B0FF" />
    </linearGradient>

    <!-- Blue glow filter -->
    <filter id="glow" x="-50%" y="-50%" width="200%" height="200%">
      <feGaussianBlur in="SourceGraphic" stdDeviation="3" result="blur" />
      <feMerge>
        <feMergeNode in="blur"/>
        <feMergeNode in="SourceGraphic"/>
      </feMerge>
    </filter>
  </defs>

  <!-- Map pin with glow -->
  <path d="M100,10 C160,10 190,70 190,120 C190,200 100,290 100,290 C100,290 10,200 10,120 C10,70 40,10 100,10 Z"
        fill="url(#gradMain)" filter="url(#glow)" />

  <!-- Inner circle -->
  <circle cx="100" cy="120" r="65" fill="white" />

  <!-- Modern Bus Icon -->
  <g transform="translate(50, 75)">
    <!-- Bus body -->
    <rect x="0" y="10" width="100" height="50" rx="10" ry="10" fill="url(#gradMain)" />
    
    <!-- Windows -->
    <rect x="10" y="20" width="18" height="15" rx="3" ry="3" fill="white" />
    <rect x="32" y="20" width="18" height="15" rx="3" ry="3" fill="white" />
    <rect x="54" y="20" width="18" height="15" rx="3" ry="3" fill="white" />
    <rect x="76" y="20" width="14" height="15" rx="3" ry="3" fill="white" />

    <!-- Headlights -->
    <circle cx="5" cy="35" r="3" fill="#FFF78C" />
    <circle cx="95" cy="35" r="3" fill="#FFF78C" />

    <!-- Wheels -->
    <circle cx="20" cy="65" r="7" fill="#333" />
    <circle cx="80" cy="65" r="7" fill="#333" />
  </g>

  <!-- Wi-Fi signals with glow -->
  <path d="M75,50 Q100,30 125,50" fill="none" stroke="url(#gradSignal)" stroke-width="4" filter="url(#glow)" />
  <path d="M80,58 Q100,42 120,58" fill="none" stroke="url(#gradSignal)" stroke-width="3" filter="url(#glow)" />
  <path d="M85,65 Q100,55 115,65" fill="none" stroke="url(#gradSignal)" stroke-width="2" filter="url(#glow)" />

  <!-- Subtle grid lines for style -->
  <line x1="55" y1="190" x2="100" y2="290" stroke="white" stroke-width="1" opacity="0.1" />
  <line x1="75" y1="190" x2="100" y2="290" stroke="white" stroke-width="1" opacity="0.1" />
  <line x1="95" y1="190" x2="100" y2="290" stroke="white" stroke-width="1" opacity="0.1" />
  <line x1="115" y1="190" x2="100" y2="290" stroke="white" stroke-width="1" opacity="0.1" />
  <line x1="135" y1="190" x2="100" y2="290" stroke="white" stroke-width="1" opacity="0.1" />
  <line x1="40" y1="240" x2="160" y2="240" stroke="white" stroke-width="1" opacity="0.1" />
</svg>
